<?xml version="1.0" standalone="no"?>
<!DOCTYPE svg PUBLIC "-//W3C//DTD SVG 20010904//EN"
 "http://www.w3.org/TR/2001/REC-SVG-20010904/DTD/svg10.dtd">
<svg version="1.0" xmlns="http://www.w3.org/2000/svg"
 width="694.000000pt" height="694.000000pt" viewBox="0 0 694.000000 694.000000"
 preserveAspectRatio="xMidYMid meet">
<metadata>
Created by potrace 1.11, written by Peter Selinger 2001-2013
</metadata>
<g transform="translate(0.000000,694.000000) scale(0.100000,-0.100000)"
fill="#000000" stroke="none">
<path d="M2159 5426 c-2 -2 -20 -6 -40 -9 -20 -2 -59 -16 -87 -30 -33 -17 -54
-22 -58 -15 -4 5 -24 18 -45 27 -74 33 -269 12 -269 -30 0 -5 -10 0 -22 11
-13 11 -34 24 -48 27 -14 4 -179 7 -367 7 -332 1 -343 0 -370 -20 -15 -12 -36
-36 -47 -53 -17 -30 -19 -56 -18 -336 0 -242 3 -310 14 -333 9 -17 12 -36 7
-48 -4 -10 -8 -281 -8 -602 -1 -628 -1 -629 51 -672 13 -10 39 -21 58 -25 l35
-6 -2 -187 c-2 -257 -2 -244 -14 -237 -6 4 -68 7 -139 8 -131 0 -153 -5 -196
-48 -33 -32 -41 -208 -14 -281 6 -16 11 -31 11 -34 -2 -14 25 -79 45 -112 49
-78 96 -113 200 -148 82 -29 259 -22 338 12 79 34 146 94 182 162 31 60 39 66
49 37 10 -33 124 -138 183 -169 87 -46 161 -63 282 -64 72 0 156 9 172 18 13
9 9 -7 -10 -34 -35 -50 -49 -97 -61 -200 -6 -50 -4 -71 10 -102 19 -42 69 -80
107 -80 12 0 22 -3 22 -6 0 -3 -18 -26 -39 -50 -94 -107 -141 -302 -92 -381
39 -62 53 -65 370 -65 157 -1 300 2 317 6 40 9 79 51 91 96 5 19 9 73 8 120
-2 89 -19 140 -53 159 -45 26 -45 26 -14 72 82 122 85 309 7 423 -14 21 -24
41 -21 43 4 5 84 6 178 4 l27 -1 -24 -35 c-52 -78 -79 -203 -79 -375 -1 -303
99 -475 300 -520 54 -12 130 -14 189 -5 54 8 158 61 189 96 56 63 97 159 121
284 7 38 7 260 0 300 -15 81 -39 155 -66 202 l-29 53 37 1 c79 1 114 17 144
66 18 29 20 49 20 173 l0 140 52 1 c82 3 189 0 193 -4 3 -2 -12 -48 -31 -102
-19 -54 -35 -113 -35 -130 0 -27 -6 -34 -43 -52 -132 -64 -209 -201 -208 -375
0 -72 59 -138 124 -138 l29 0 -44 -49 c-39 -44 -53 -67 -86 -141 -32 -71 -41
-193 -18 -239 15 -28 58 -62 86 -68 31 -7 576 -6 606 1 38 8 81 52 92 92 5 16
8 70 7 119 -2 94 -18 145 -53 164 -46 27 -46 27 -18 64 76 100 89 282 29 402
-9 17 -30 48 -49 71 -31 38 -32 42 -16 57 9 10 25 43 37 75 l20 57 66 3 67 3
18 -57 c9 -31 25 -65 34 -77 16 -20 15 -23 -21 -75 -66 -93 -96 -223 -93 -397
2 -158 15 -226 64 -332 73 -157 263 -229 465 -178 174 45 275 229 277 505 1
176 -30 317 -88 398 -15 20 -15 22 0 23 25 2 29 3 64 18 27 11 35 11 48 0 12
-10 55 -14 152 -15 147 -2 167 2 212 51 24 25 25 33 28 165 3 136 4 138 27
138 22 0 23 -4 28 -97 8 -162 26 -210 92 -243 47 -24 310 -20 349 5 59 39 80
153 39 216 -11 17 -16 54 -18 118 -3 94 -20 189 -36 198 -4 3 0 20 11 38 49
85 63 214 34 313 -18 63 -71 145 -119 187 -27 23 -32 33 -26 50 4 12 7 199 7
415 -1 225 3 396 8 399 5 3 59 7 120 8 185 2 200 18 204 225 3 138 2 147 -20
180 -13 19 -39 43 -58 52 l-34 18 -2 208 c0 115 -4 222 -8 238 -10 38 -37 96
-53 112 -7 7 -18 21 -25 30 -22 30 -91 78 -138 97 -96 38 -269 26 -352 -25
-30 -18 -30 -18 -65 6 -20 13 -43 25 -52 25 -127 10 -219 -3 -229 -31 -6 -15
-20 -12 -52 12 -29 21 -41 22 -228 23 -192 1 -243 -5 -270 -30 -11 -10 -20
-10 -43 2 -15 8 -50 17 -76 21 -34 5 -1249 7 -1398 2 -5 0 -48 1 -93 3 -83 3
-153 -12 -160 -33 -5 -15 -20 -12 -53 12 -29 21 -38 22 -242 22 -208 0 -213 0
-245 -24 -32 -24 -32 -24 -69 -6 -58 28 -132 46 -194 46 -31 0 -58 -2 -60 -4z
m-744 -838 c2 -2 -19 -27 -47 -56 -28 -29 -53 -50 -56 -47 -9 9 -2 99 9 105 9
6 88 5 94 -2z m1241 -22 c-3 -11 -15 -66 -27 -121 -12 -55 -25 -103 -29 -107
-3 -5 -12 20 -19 55 -7 34 -21 92 -31 129 l-17 67 51 3 c67 4 79 0 72 -26z
m1199 24 l22 0 -2 -392 c-1 -216 -5 -401 -9 -411 -7 -15 -19 -17 -65 -15 -53
3 -56 4 -62 33 -4 17 -7 200 -8 407 l-1 377 23 4 c12 3 35 3 51 1 16 -2 39 -4
51 -4z m-1938 -540 l0 -340 -28 38 c-15 20 -81 108 -145 196 l-116 159 143
143 c79 79 144 144 145 144 0 0 1 -153 1 -340z m2664 170 c1 -35 1 -666 0
-715 l-1 -40 -142 1 c-109 1 -150 -2 -173 -13 l-30 -15 31 33 c59 63 88 134
119 286 4 18 7 134 7 257 l0 225 27 3 c14 2 56 3 94 3 65 0 67 -1 68 -25z
m945 17 c7 -6 7 -757 0 -764 -3 -3 -53 -5 -113 -5 -87 0 -114 -4 -140 -19 -18
-10 -33 -15 -33 -10 0 10 -79 34 -101 31 -46 -7 -44 -24 -44 382 l0 383 29 5
c39 7 395 4 402 -3z m-4119 -707 c49 -69 92 -131 96 -136 3 -6 -16 -35 -43
-64 l-50 -54 0 38 c0 63 -42 132 -91 148 -6 2 -11 21 -11 43 0 90 2 158 6 154
2 -2 44 -60 93 -129z m1916 -41 c17 -25 17 -27 0 -32 -10 -2 -25 -8 -33 -11
-14 -6 -17 27 -11 109 1 6 7 -1 14 -15 7 -14 21 -37 30 -51z m888 -91 c-10
-18 -24 -51 -31 -73 -20 -64 -30 -64 -30 -3 0 47 3 58 19 63 10 3 26 14 36 25
26 28 27 25 6 -12z m-1891 -84 c0 -8 -5 -12 -10 -9 -6 4 -8 11 -5 16 9 14 15
11 15 -7z m2508 -181 l1 -188 -18 50 c-10 28 -39 108 -64 180 -26 71 -47 133
-47 137 0 4 29 8 64 8 l63 0 1 -187z m-2901 -92 c33 -17 48 -69 48 -166 0 -99
-14 -146 -48 -164 -75 -38 -136 -3 -154 89 -15 77 -1 191 28 226 27 33 81 40
126 15z m393 -610 c0 -10 -9 -21 -20 -24 -24 -6 -25 1 -3 25 20 23 23 23 23
-1z"/>
</g>
</svg>
